<?xml version="1.0" encoding="UTF-8"?>
<svg width="8" height="8" viewBox="0 0 8 8" fill="none" xmlns="http://www.w3.org/2000/svg">
  <path d="M4 0C1.794 0 0 1.794 0 4C0 6.206 1.794 8 4 8C6.206 8 8 6.206 8 4C8 1.794 6.206 0 4 0ZM6.19 3.058L3.822 5.426C3.728 5.52 3.602 5.572 3.47 5.572C3.338 5.572 3.212 5.52 3.118 5.426L1.81 4.118C1.616 3.924 1.616 3.606 1.81 3.412C2.004 3.218 2.322 3.218 2.516 3.412L3.47 4.366L5.484 2.352C5.678 2.158 5.996 2.158 6.19 2.352C6.384 2.546 6.384 2.864 6.19 3.058Z" fill="#2663FF"/>
</svg> 