<svg width="22" height="22" viewBox="0 0 22 22" fill="none" xmlns="http://www.w3.org/2000/svg">
<path d="M20.0296 16.9998L14.6809 11.0722L20.0296 5.30544V16.9998ZM2.87031 18.073L8.239 12.2141L9.11831 13.1629C9.62981 13.7122 10.2589 13.9941 10.9993 13.9941C11.7439 13.9941 12.3695 13.7122 12.8824 13.1629L13.7617 12.2141L19.1304 18.0737L2.87031 18.073ZM1.97106 16.9998V5.30544L7.31981 11.0722L1.97106 16.9998ZM19.1744 3.92631L12.3255 11.3898C11.7281 12.0443 11.2853 12.3702 11 12.3702C10.7147 12.3702 10.2719 12.0443 9.6745 11.3898L2.82563 3.92631H19.1744ZM19.5869 2.40625H2.41313C1.46163 2.40625 0.6875 3.35775 0.6875 4.52925V17.4721C0.6875 18.6443 1.46163 19.5938 2.41313 19.5938H19.5869C20.5425 19.5938 21.3125 18.6443 21.3125 17.4721V4.52925C21.3125 3.35775 20.5425 2.40625 19.5869 2.40625Z" fill="#444444"/>
</svg>
