<svg width="30" height="30" viewBox="0 0 30 30" fill="none" xmlns="http://www.w3.org/2000/svg">
<path d="M2.76471 17.0883H4.63678C5.01518 17.0884 5.32233 17.3953 5.32233 17.7738V20.5814C5.32259 21.7529 6.2719 22.7025 7.44342 22.7025H22.4151C23.5866 22.7025 24.5359 21.7529 24.5362 20.5814V17.7738C24.5362 17.3953 24.8438 17.0883 25.2227 17.0883H27.0938C27.4723 17.0883 27.7794 17.3953 27.7794 17.7738V22.4525C27.7792 24.3817 26.2154 25.9447 24.2862 25.9447H5.57233C3.64352 25.9447 2.07927 24.3817 2.07916 22.4525V17.7738L2.09283 17.6351C2.15694 17.323 2.43383 17.0883 2.76471 17.0883ZM13.9932 2.09412H15.8653C16.2436 2.09427 16.5506 2.40134 16.5508 2.77966V12.8051L21.3419 8.01404C21.6228 7.73317 22.0785 7.73319 22.3594 8.01404L23.7315 9.38513C23.9773 9.63091 24.0077 10.0109 23.8233 10.2904L23.7305 10.4037L16.0167 18.1176C16.0142 18.1192 16.0109 18.1218 16.0069 18.1244C15.991 18.1345 15.9669 18.149 15.9356 18.1664C15.8724 18.2014 15.7834 18.2463 15.6778 18.2904C15.4629 18.3801 15.1957 18.4592 14.9395 18.4594C14.6795 18.4594 14.407 18.3804 14.1876 18.2904C14.0796 18.2461 13.9885 18.2016 13.9239 18.1664C13.8915 18.1487 13.8669 18.1336 13.8506 18.1234C13.847 18.1211 13.8442 18.1191 13.8419 18.1176L6.12799 10.4037C5.84689 10.1223 5.84708 9.66604 6.12799 9.38513L7.49908 8.01404C7.77996 7.73321 8.23569 7.73328 8.51666 8.01404L13.3077 12.8051V2.77966C13.3079 2.40129 13.6152 2.09435 13.9932 2.09412Z" fill="white" stroke="#2663FF" stroke-width="0.5"/>
</svg>
