<svg width="22" height="22" viewBox="0 0 22 22" fill="none" xmlns="http://www.w3.org/2000/svg">
<path d="M4.5376 22C3.4376 22 1.1001 21.3125 1.1001 18.975V4.2625C1.1001 1.375 2.8876 0.137497 4.5376 0.137497H16.5001C18.5626 0.137497 19.9376 1.5125 19.9376 3.7125V8.6625C19.9376 9.075 19.6626 9.625 19.1126 9.625C18.4251 9.4875 18.1501 9.2125 18.1501 8.6625V3.85C18.1501 2.3375 16.7751 1.7875 16.2251 1.7875H4.6751C3.8501 1.7875 2.8876 2.6125 2.7501 4.4V18.15C2.7501 20.2125 4.1251 20.2125 4.6751 20.2125H8.8001C9.3501 20.075 9.6251 20.625 9.6251 21.0375C9.6251 21.45 9.3501 22 8.8001 22H4.5376Z" fill="#444444"/>
<path d="M5.7749 3.71249H15.1249C15.5374 3.71249 15.8124 3.98749 15.8124 4.39999C15.8124 4.81249 15.5374 5.08749 15.1249 5.08749H5.7749C5.3624 5.08749 5.0874 4.81249 5.0874 4.39999C5.0874 3.98749 5.3624 3.71249 5.7749 3.71249ZM5.7749 7.83749H15.1249C15.5374 7.83749 15.8124 8.11249 15.8124 8.52499C15.8124 8.93749 15.5374 9.21249 15.1249 9.21249H5.7749C5.3624 9.21249 5.0874 8.93749 5.0874 8.52499C5.0874 8.11249 5.3624 7.83749 5.7749 7.83749ZM5.7749 11.825H9.7624C10.1749 11.825 10.4499 12.1 10.4499 12.5125C10.4499 12.925 10.1749 13.2 9.7624 13.2H5.7749C5.3624 13.2 5.0874 12.925 5.0874 12.5125C5.0874 12.1 5.3624 11.825 5.7749 11.825ZM11.2749 21.8625C10.9999 21.8625 10.7249 21.5875 10.5874 21.175V18.0125C10.5874 17.875 10.5874 17.7375 10.7249 17.6L17.0499 11.275C17.4624 11 17.8749 10.8625 18.4249 10.8625C18.9749 10.8625 19.3874 11 19.6624 11.4125L21.1749 12.925C21.5874 13.3375 21.7249 13.75 21.7249 14.1625C21.7249 14.7125 21.5874 15.125 21.1749 15.4L14.8499 21.725C14.7124 21.8625 14.5749 21.8625 14.4374 21.8625H11.2749ZM14.0249 20.625L11.8249 18.425L11.9624 20.625H14.0249ZM14.9874 19.9375L18.6999 16.225L16.3624 13.8875L12.6499 17.6L14.9874 19.9375ZM19.6624 15.2625L20.3499 14.575C20.6249 14.3 20.6249 14.025 20.3499 13.75L18.8374 12.375C18.6999 12.2375 18.5624 12.2375 18.4249 12.2375C18.2874 12.2375 18.1499 12.2375 18.0124 12.375L17.3249 13.0625L19.6624 15.2625Z" fill="#444444"/>
</svg>
