<svg width="36" height="36" viewBox="0 0 36 36" fill="none" xmlns="http://www.w3.org/2000/svg">
<path d="M13.5 11.25H31.5C32.85 11.25 33.75 10.35 33.75 9C33.75 7.65 32.85 6.75 31.5 6.75H13.5C12.15 6.75 11.25 7.65 11.25 9C11.25 10.35 12.15 11.25 13.5 11.25ZM31.5 15.75H13.5C12.15 15.75 11.25 16.65 11.25 18C11.25 19.35 12.15 20.25 13.5 20.25H31.5C32.85 20.25 33.75 19.35 33.75 18C33.75 16.65 32.85 15.75 31.5 15.75ZM31.5 24.75H13.5C12.15 24.75 11.25 25.65 11.25 27C11.25 28.35 12.15 29.25 13.5 29.25H31.5C32.85 29.25 33.75 28.35 33.75 27C33.75 25.65 32.85 24.75 31.5 24.75ZM4.5 6.75C3.15 6.75 2.25 7.65 2.25 9C2.25 10.35 3.15 11.25 4.5 11.25C5.85 11.25 6.75 10.35 6.75 9C6.75 7.65 5.85 6.75 4.5 6.75ZM4.5 15.75C3.15 15.75 2.25 16.65 2.25 18C2.25 19.35 3.15 20.25 4.5 20.25C5.85 20.25 6.75 19.35 6.75 18C6.75 16.65 5.85 15.75 4.5 15.75ZM4.5 24.75C3.15 24.75 2.25 25.65 2.25 27C2.25 28.35 3.15 29.25 4.5 29.25C5.85 29.25 6.75 28.35 6.75 27C6.75 25.65 5.85 24.75 4.5 24.75Z" fill="#2663FF"/>
</svg>
