<svg width="22" height="22" viewBox="0 0 22 22" fill="none" xmlns="http://www.w3.org/2000/svg">
<g clip-path="url(#clip0_332_134)">
<path d="M21.4501 20.4875L19.2501 18.2875C19.6626 17.6 19.9376 16.775 19.9376 15.95C19.9376 13.6125 18.0126 11.6875 15.6751 11.6875C13.3376 11.6875 11.4126 13.6125 11.4126 15.95C11.4126 18.2875 13.3376 20.2125 15.6751 20.2125C16.6376 20.2125 17.4626 19.9375 18.1501 19.3875L20.3501 21.5875C20.6251 21.8625 21.1751 21.8625 21.4501 21.5875C21.7251 21.3125 21.7251 20.7625 21.4501 20.4875ZM15.5376 18.5625C14.0251 18.5625 12.9251 17.325 12.9251 15.95C12.9251 14.4375 14.1626 13.3375 15.5376 13.3375C17.0501 13.3375 18.1501 14.575 18.1501 15.95C18.2876 17.4625 17.0501 18.5625 15.5376 18.5625Z" fill="#444444"/>
<path d="M4.5376 22C3.4376 22 1.1001 21.3125 1.1001 18.975V4.26251C1.1001 1.51251 2.8876 0.137512 4.5376 0.137512H16.5001C18.5626 0.137512 19.9376 1.51251 19.9376 3.71251V8.66251C19.9376 9.07501 19.6626 9.62501 19.1126 9.62501C18.4251 9.48751 18.1501 9.21251 18.1501 8.66251V3.98751C18.1501 2.47501 16.7751 1.92501 16.2251 1.92501H4.5376C3.8501 1.92501 2.7501 2.75001 2.7501 4.53751V18.2875C2.7501 20.35 4.1251 20.35 4.6751 20.35H8.8001C9.3501 20.2125 9.6251 20.7625 9.6251 21.175C9.6251 21.5875 9.3501 22 8.6626 22H4.5376Z" fill="#444444"/>
<path d="M5.7749 3.85001H15.1249C15.5374 3.85001 15.8124 4.12501 15.8124 4.53751C15.8124 4.95001 15.5374 5.22501 15.1249 5.22501H5.7749C5.3624 5.22501 5.0874 4.95001 5.0874 4.53751C5.0874 4.12501 5.2249 3.85001 5.7749 3.85001ZM5.7749 7.83751H15.1249C15.5374 7.83751 15.8124 8.11251 15.8124 8.52501C15.8124 8.93751 15.5374 9.21251 15.1249 9.21251H5.7749C5.3624 9.21251 5.0874 8.93751 5.0874 8.52501C5.0874 8.25001 5.2249 7.83751 5.7749 7.83751ZM5.7749 11.9625H9.7624C10.1749 11.9625 10.4499 12.2375 10.4499 12.65C10.4499 13.0625 10.0374 13.3375 9.7624 13.3375H5.7749C5.3624 13.3375 5.0874 13.0625 5.0874 12.65C5.0874 12.2375 5.2249 11.9625 5.7749 11.9625Z" fill="#444444"/>
</g>
<defs>
<clipPath id="clip0_332_134">
<rect width="22" height="22" fill="white"/>
</clipPath>
</defs>
</svg>
