<svg width="22" height="22" viewBox="0 0 22 22" fill="none" xmlns="http://www.w3.org/2000/svg">
<g clip-path="url(#clip0_332_114)">
<path d="M20.2126 9.89999C19.8 9.89999 19.3876 10.175 19.3876 10.5875V11.4125C19.3876 11.825 19.8 12.1 20.2126 12.1C20.6251 12.1 21.0376 11.825 21.0376 11.4125V10.5875C21.0376 10.175 20.6251 9.89999 20.2126 9.89999ZM21.4501 0.412494C21.1751 -6.10948e-06 20.6251 -6.10948e-06 20.2126 0.412494L8.25005 12.375C7.83755 12.65 7.83755 13.2 8.25005 13.6125C8.52505 14.025 9.07505 14.025 9.48755 13.6125L21.4501 1.64999C21.8626 1.37499 21.8626 0.824994 21.4501 0.412494Z" fill="#444444"/>
<path d="M20.35 13.475C19.8 13.475 19.525 13.8875 19.525 14.3V18.7C19.525 19.3875 18.975 20.075 18.15 20.075H3.16245C2.47495 20.075 1.78745 19.525 1.78745 18.7V3.7125C1.78745 3.025 2.33745 2.3375 3.16245 2.3375H12.375C12.7875 2.3375 13.2 1.925 13.2 1.5125C13.2 1.1 12.7875 0.6875 12.375 0.6875H3.16245C1.51245 0.6875 0.137451 2.0625 0.137451 3.7125V18.8375C0.137451 20.4875 1.51245 21.8625 3.16245 21.8625H18.15C19.8 21.8625 21.175 20.4875 21.175 18.8375V14.3C21.175 13.75 20.7625 13.475 20.35 13.475Z" fill="#444444"/>
</g>
<defs>
<clipPath id="clip0_332_114">
<rect width="22" height="22" fill="white"/>
</clipPath>
</defs>
</svg>
