<svg width="22" height="22" viewBox="0 0 22 22" fill="none" xmlns="http://www.w3.org/2000/svg">
<g clip-path="url(#clip0_332_128)">
<path d="M19.525 20.2125H15.8125L14.575 17.1875C18.0125 15.95 20.35 12.65 20.35 8.93751C20.35 4.12501 16.3625 0.137512 11.55 0.137512C6.7375 0.137512 2.75 3.98751 2.75 8.93751C2.75 12.65 5.0875 15.95 8.6625 17.325L7.2875 20.35H3.575C3.025 20.35 2.75 20.625 2.75 21.175C2.75 21.725 3.025 22 3.575 22H19.525C19.9375 22 20.35 21.5875 20.35 21.175C20.35 20.7625 19.9375 20.2125 19.525 20.2125ZM4.4 8.93751C4.4 5.50001 6.875 2.47501 10.3125 1.92501H10.45V2.33751C10.45 2.88751 11 3.43751 11.55 3.43751C12.1 3.43751 12.65 2.88751 12.65 2.33751L12.7875 1.92501C16.225 2.47501 18.7 5.50001 18.7 8.93751C18.7 12.925 15.5375 16.0875 11.55 16.0875C7.5625 16.0875 4.4 12.7875 4.4 8.93751ZM9.075 20.2125L10.175 17.6C10.5875 17.6 11 17.7375 11.4125 17.7375C11.825 17.7375 12.2375 17.6 12.7875 17.6L13.8875 20.2125H9.075Z" fill="#444444"/>
<path d="M11.55 13.75C8.93755 13.75 6.73755 11.55 6.73755 8.9375C6.73755 6.325 8.93755 4.125 11.55 4.125C12.2375 4.125 13.0625 4.2625 13.75 4.675C14.1625 4.8125 14.3 5.3625 14.1625 5.775C13.75 6.1875 13.3375 6.4625 12.925 6.1875C12.5125 5.9125 11.9625 5.9125 11.55 5.9125C9.76255 5.9125 8.38755 7.2875 8.38755 9.075C8.38755 10.8625 9.76255 12.2375 11.55 12.2375C13.3375 12.2375 14.7125 10.8625 14.7125 9.075C14.7125 8.8 14.7125 8.525 14.575 8.25C14.4375 7.8375 14.7125 7.425 15.125 7.2875C15.5375 7.15 15.95 7.425 16.0875 7.8375C16.225 8.25 16.225 8.6625 16.225 8.9375C16.3625 11.6875 14.1625 13.75 11.55 13.75Z" fill="#444444"/>
<ellipse cx="13.233" cy="8.71598" rx="2" ry="1" transform="rotate(-23.5568 13.233 8.71598)" fill="#444444"/>
</g>
<defs>
<clipPath id="clip0_332_128">
<rect width="22" height="22" fill="white"/>
</clipPath>
</defs>
</svg>
