<svg width="38" height="33" viewBox="0 0 38 33" fill="none" xmlns="http://www.w3.org/2000/svg">
<path d="M4.97526 16.5615L0 13.3711V29.4512L4.97526 32.353V16.5615Z" fill="#2663FF"/>
<path d="M10.6611 13.3711L5.68579 16.5615V32.353L10.6611 29.4512V13.3711Z" fill="#2663FF"/>
<path d="M0.251953 12.7191L5.3341 15.979L10.4162 12.7191L5.3341 9.83336L0.251953 12.7191Z" fill="#2663FF"/>
<path d="M18.1747 13.3497L13.1995 10.154V29.4512L18.1747 32.353V13.3497Z" fill="#FFB200"/>
<path d="M23.8612 10.154L18.8806 13.3497V32.353L23.8612 29.4512V10.154Z" fill="#FFB200"/>
<path d="M13.4453 9.50203L18.5275 12.7619L23.6096 9.50203L18.5275 6.61627L13.4453 9.50203Z" fill="#FFB200"/>
<path d="M31.37 6.91554L26.3948 3.71983V29.4512L31.37 32.353V6.91554Z" fill="#2663FF"/>
<path d="M37.0553 3.71983L32.0801 6.91554V32.353L37.0553 29.4512V3.71983Z" fill="#2663FF"/>
<path d="M31.7272 6.33305L36.8093 3.07321L31.7272 0.182102L26.645 3.07321L31.7272 6.33305Z" fill="#2663FF"/>
</svg>
