<svg xmlns="http://www.w3.org/2000/svg" width="24" height="24" viewBox="0 0 24 24" fill="none">
  <g clip-path="url(#clip0_346_3226)">
    <path d="M23.2499 9.75L13.1999 1.05C12.4499 0.449998 11.5499 0.449998 10.7999 1.05L0.749902 9.75C0.149902 10.2 -9.76622e-05 10.95 0.299902 11.7C0.599902 12.45 1.1999 12.9 2.0999 12.9H2.9999V21.45C2.9999 22.5 3.8999 23.4 4.9499 23.4H19.3499C20.3999 23.4 21.2999 22.5 21.2999 21.45V20.1C21.2999 19.65 20.8499 19.2 20.3999 19.2C19.9499 19.2 19.4999 19.65 19.4999 20.1L19.3499 21.45H16.1999V15.6C16.1999 14.55 15.4499 13.8 14.3999 13.8H9.8999C8.8499 13.8 8.0999 14.55 8.0999 15.6V21.45H4.9499V12.15C4.9499 11.7 4.4999 11.25 4.0499 11.25H2.0999L11.9999 2.55L22.0499 11.25H20.0999C19.6499 11.25 19.1999 11.7 19.1999 12.15V15.9C19.1999 16.35 19.6499 16.8 20.0999 16.8C20.5499 16.8 20.9999 16.35 20.9999 15.9V12.9H22.0499C22.7999 12.9 23.5499 12.45 23.8499 11.7C23.9999 10.95 23.8499 10.2 23.2499 9.75ZM9.7499 15.75H14.2499V21.6H9.7499V15.75Z" fill="#444444"/>
  </g>
  <defs>
    <clipPath id="clip0_346_3226">
      <rect width="24" height="24" fill="white"/>
    </clipPath>
  </defs>
</svg> 