<svg xmlns="http://www.w3.org/2000/svg" width="20" height="20" viewBox="0 0 20 20" fill="none">
  <path d="M11.8731 8.16125C11.7524 8.04059 11.6237 7.93183 11.4911 7.83098L11.4909 7.8312C11.3545 7.69997 11.1692 7.61914 10.9649 7.61914C10.5457 7.61914 10.2059 7.95899 10.2059 8.37821C10.2059 8.5637 10.2725 8.7336 10.383 8.86546C10.3831 8.86548 10.3831 8.86552 10.3831 8.86554C10.4362 8.92887 10.4994 8.98348 10.5703 9.02671C10.6419 9.08573 10.7122 9.14385 10.7779 9.20954L10.8404 9.27214C11.6271 10.0579 11.3923 11.4116 10.6056 12.1983L7.24853 15.5544C6.46184 16.3401 5.18287 16.3401 4.39614 15.5544L4.33306 15.4912C3.54632 14.7046 3.54632 13.4246 4.33306 12.6399L5.81618 11.1572C6.00647 11.0062 6.12862 10.7731 6.12862 10.5113C6.12862 10.056 5.75951 9.68686 5.30418 9.68686C5.13236 9.68686 4.97287 9.73946 4.8408 9.82938C4.84038 9.8285 4.83994 9.82766 4.8395 9.82676L4.82369 9.84155C4.76531 9.88352 4.71253 9.93275 4.66694 9.98823L3.12566 11.4305C1.67686 12.8803 1.67686 15.2514 3.12566 16.6992L3.18824 16.7617C4.63704 18.2095 7.00717 18.2095 8.45597 16.7617L11.812 13.4047C13.2588 11.956 13.3815 9.67063 11.9347 8.22283L11.8731 8.16125Z" fill="#666666"/>
  <path d="M16.7121 3.23838L16.6495 3.1758C15.2007 1.727 12.8306 1.727 11.3818 3.1758L8.02575 6.53283C6.57695 7.98162 6.49717 10.0738 7.94597 11.5235L8.00754 11.5841C8.07334 11.6499 8.14163 11.7119 8.21135 11.7714C8.26181 11.8278 8.32109 11.876 8.38699 11.9142C8.38749 11.9146 8.38801 11.915 8.38851 11.9154L8.38873 11.9152C8.49376 11.9756 8.61545 12.0103 8.74532 12.0103C9.1411 12.0103 9.46192 11.6895 9.46192 11.2937C9.46192 11.182 9.43634 11.0763 9.39073 10.982C9.29599 10.7693 9.11865 10.6398 8.99599 10.5172L8.9344 10.4566C8.14771 9.66988 8.44645 8.52695 9.23313 7.74027L12.5912 4.3842C13.3759 3.59748 14.6553 3.59748 15.442 4.3842L15.5047 4.44578C16.2914 5.23253 16.2914 6.51294 15.5047 7.29867L14.0264 8.77792C13.8253 8.92692 13.6949 9.16592 13.6949 9.4354C13.6949 9.88703 14.061 10.2532 14.5127 10.2532C14.6699 10.2532 14.8166 10.2087 14.9413 10.1319C14.9422 10.1335 14.9431 10.1349 14.944 10.1366L14.967 10.1154C15.0376 10.0681 15.1003 10.01 15.1531 9.94367L16.711 8.50611C18.1609 7.05733 18.1609 4.68716 16.7121 3.23838Z" fill="#666666"/>
</svg> 