<svg xmlns="http://www.w3.org/2000/svg" width="24" height="23" viewBox="0 0 24 23" fill="none">
  <g clip-path="url(#clip0_332_410)">
    <path d="M14.5286 15.4909H13.4641C13.4641 15.4909 13.3276 15.4065 13.3276 15.1684V12.9354L12.1271 12.9507V15.435C12.1271 15.435 12.2428 16.0914 13.1131 16.0914H15.1291V13.0895H14.5285L14.5286 15.4909ZM10.9261 13.0895H9.80014C9.80014 13.0895 8.76089 13.0484 8.39676 14.2269C8.27063 15.0133 8.50976 15.3133 8.55142 15.4125C8.59365 15.5106 8.92925 16.0914 9.77218 16.0914H11.5265V11.5743L10.926 11.5611L10.9261 13.0895ZM10.9261 15.4909H10.0382C10.0382 15.4909 9.49139 15.4755 9.32303 14.846C9.23857 14.5647 9.33624 14.2959 9.38008 14.1693C9.4212 14.0432 9.60437 13.69 9.98277 13.69H10.9261V15.4909ZM12.206 0C5.97161 0 0.917969 5.05396 0.917969 11.2881C0.917969 17.5222 5.97164 22.5761 12.206 22.5761C18.4404 22.5761 23.4941 17.5222 23.4941 11.2881C23.4941 5.05396 18.4405 0 12.206 0ZM12.8943 5.99062C12.9842 5.16968 13.9659 3.91002 14.7529 4.08988C15.5371 4.26869 16.2528 5.30952 16.1075 6.20452C15.966 7.1011 15.2536 8.284 14.1452 8.13923C13.0385 7.99773 12.7879 6.99529 12.8943 5.99062ZM10.5729 3.73127C11.4021 3.73127 12.0728 4.68601 12.0728 5.8645C12.0728 7.04408 11.4021 7.99884 10.5729 7.99884C9.74476 7.99884 9.07296 7.04411 9.07296 5.8645C9.07294 4.68603 9.74476 3.73127 10.5729 3.73127ZM5.89485 8.78575C5.89485 8.78575 6.07203 7.02927 7.28729 6.92066C8.25305 6.83788 8.96383 7.89462 9.03784 8.49896C9.08339 8.89104 9.28734 10.6854 7.7858 11.0084C6.28752 11.3303 5.73039 9.59686 5.89485 8.78575ZM17.325 16.3497C16.5034 18.2855 13.5014 17.2798 13.5014 17.2798C13.5014 17.2798 12.3942 16.9244 11.1098 17.209C9.82481 17.4964 8.717 17.3872 8.717 17.3872C8.717 17.3872 7.21432 17.4234 6.78601 15.5249C6.35824 13.6242 8.28591 12.5833 8.4302 12.4062C8.57222 12.2264 9.57306 11.5458 10.2147 10.4709C10.8597 9.39502 12.7879 8.5346 14.1452 10.6486C15.1461 12.0832 16.861 13.4103 16.861 13.4103C16.861 13.4103 18.1454 14.4145 17.325 16.3497ZM17.0743 11.9395C15.4297 11.9769 15.36 10.8285 15.36 10.0059C15.36 9.14385 15.5371 7.92476 16.861 7.92476C18.1827 7.92476 18.5387 9.21622 18.5387 9.64508C18.5387 10.0767 18.7191 11.9034 17.0743 11.9395Z" fill="#2663FF"/>
  </g>
  <defs>
    <clipPath id="clip0_332_410">
      <rect width="22.5761" height="22.5761" fill="white" transform="translate(0.917969)"/>
    </clipPath>
  </defs>
</svg> 