<svg xmlns="http://www.w3.org/2000/svg" width="24" height="23" viewBox="0 0 24 23" fill="none">
  <g clip-path="url(#clip0_332_414)">
    <path d="M0.835938 11.2881C0.835938 14.2819 2.02521 17.153 4.14214 19.2699C6.25906 21.3869 9.13023 22.5761 12.124 22.5761C15.1178 22.5761 17.989 21.3869 20.1059 19.2699C22.2228 17.153 23.4121 14.2819 23.4121 11.2881C23.4121 8.29429 22.2228 5.42312 20.1059 3.3062C17.989 1.18928 15.1178 0 12.124 0C9.13023 0 6.25906 1.18928 4.14214 3.3062C2.02521 5.42312 0.835938 8.29429 0.835938 11.2881Z" fill="#2663FF"/>
    <path d="M17.8439 10.0927C17.9932 9.6494 18.0448 9.17912 17.9953 8.71404C17.9458 8.24897 17.7963 7.8001 17.5571 7.39818C16.8284 6.14715 15.3651 5.5048 13.9354 5.80695C13.5365 5.37157 13.0311 5.04751 12.4689 4.86664C11.9068 4.68578 11.3072 4.65433 10.7292 4.7754C10.153 4.89353 9.61781 5.16094 9.17738 5.55087C8.73695 5.94081 8.40668 6.43958 8.21963 6.99726C7.75728 7.08974 7.31988 7.27944 6.93641 7.55377C6.55294 7.8281 6.23217 8.1808 5.99537 8.58849C5.63661 9.19579 5.48302 9.90249 5.55734 10.6039C5.63167 11.3053 5.92996 11.9641 6.40803 12.4828C6.25816 12.9258 6.20594 13.396 6.25494 13.8611C6.30395 14.3262 6.45301 14.7752 6.69191 15.1773C7.42138 16.4283 8.88617 17.0714 10.3166 16.7685C10.6332 17.1189 11.0203 17.3984 11.4526 17.5886C11.8848 17.7789 12.3524 17.8756 12.8247 17.8725C14.2902 17.8739 15.5882 16.9404 16.036 15.5643C16.4981 15.4715 16.9353 15.2817 17.3186 15.0074C17.7019 14.7331 18.0226 14.3805 18.2595 13.973C18.6138 13.3667 18.7646 12.6628 18.6898 11.9645C18.615 11.2663 18.3186 10.6103 17.8439 10.0927ZM12.8247 17.0106C12.2412 17.0121 11.6754 16.8103 11.2246 16.44L11.3036 16.3961L13.9617 14.8824C14.0274 14.8446 14.0821 14.7903 14.1203 14.7248C14.1586 14.6594 14.179 14.5851 14.1798 14.5093V10.8125L15.3036 11.4534C15.3093 11.4561 15.3143 11.46 15.3181 11.465C15.3219 11.47 15.3245 11.4758 15.3255 11.482V14.5452C15.3219 15.9059 14.2046 17.0077 12.8247 17.0106ZM7.45065 14.7471C7.15774 14.249 7.05239 13.6626 7.15359 13.0937L7.23261 13.1398L9.89294 14.6542C10.0268 14.731 10.1929 14.731 10.3268 14.6542L13.5776 12.8054V14.085C13.5773 14.0916 13.5755 14.0981 13.5723 14.1039C13.5691 14.1097 13.5647 14.1148 13.5593 14.1186L10.8668 15.6499C9.67051 16.3295 8.14207 15.9257 7.45065 14.7471ZM6.74971 9.03623C7.04745 8.53145 7.51386 8.14799 8.06671 7.95346V11.0686C8.06451 11.2222 8.14719 11.3634 8.28182 11.4395L11.5172 13.2802L10.3934 13.9211C10.3873 13.9243 10.3805 13.926 10.3736 13.926C10.3668 13.926 10.36 13.9243 10.3539 13.9211L7.66649 12.3921C7.38351 12.2326 7.13502 12.0185 6.93545 11.7622C6.73587 11.5059 6.58919 11.2126 6.5039 10.8992C6.41862 10.5857 6.39643 10.2585 6.43862 9.93645C6.48082 9.6144 6.58656 9.30393 6.74971 9.02306V9.03623ZM15.9833 11.1513L12.7384 9.29302L13.8593 8.65433C13.8654 8.65113 13.8722 8.64945 13.879 8.64945C13.8859 8.64945 13.8927 8.65113 13.8988 8.65433L16.5855 10.1856C16.9948 10.4162 17.3294 10.7593 17.5497 11.1742C17.7701 11.5891 17.8668 12.0585 17.8286 12.5267C17.7873 12.9955 17.613 13.4428 17.3262 13.8159C17.0394 14.1891 16.6519 14.4725 16.2094 14.633V11.5171C16.2068 11.4416 16.1844 11.3682 16.1446 11.304C16.1049 11.2398 16.049 11.1872 15.9826 11.1513H15.9833ZM17.1013 9.49274L17.023 9.44592L14.3671 7.91908C14.3007 7.88074 14.2253 7.86056 14.1487 7.86056C14.072 7.86056 13.9967 7.88074 13.9303 7.91908L10.6824 9.76782V8.48753C10.6819 8.48118 10.683 8.4748 10.6857 8.46902C10.6884 8.46325 10.6926 8.45828 10.6978 8.45461L13.3852 6.92557C13.7979 6.69169 14.2681 6.57846 14.742 6.59877C15.216 6.61907 15.6748 6.77211 16.066 7.04043C16.4544 7.30556 16.7584 7.67666 16.9419 8.10959C17.1255 8.54252 17.1808 9.01905 17.1013 9.4825V9.49274ZM10.07 11.7614L8.94544 11.1227C8.93977 11.1194 8.93492 11.1149 8.93125 11.1094C8.92758 11.104 8.92518 11.0978 8.92422 11.0913V8.03686C8.92662 7.56611 9.06368 7.10587 9.31921 6.71048C9.57474 6.3151 9.93808 6.00107 10.3663 5.80549C10.7969 5.60673 11.2746 5.5329 11.7451 5.5924C12.2156 5.6519 12.6599 5.84234 13.0274 6.14202L12.9484 6.18592L10.2902 7.6996C10.2244 7.73733 10.1696 7.79162 10.1312 7.85706C10.0929 7.92251 10.0723 7.99685 10.0715 8.07271L10.0693 11.7614H10.07ZM10.6795 10.4636L12.1274 9.64053L13.5776 10.4636V12.1097L12.1326 12.9327L10.6824 12.1097L10.6795 10.4636Z" fill="white"/>
  </g>
  <defs>
    <clipPath id="clip0_332_414">
      <rect width="22.5761" height="22.5761" fill="white" transform="translate(0.835938)"/>
    </clipPath>
  </defs>
</svg> 