<svg xmlns="http://www.w3.org/2000/svg" width="24" height="23" viewBox="0 0 24 23" fill="none">
  <g clip-path="url(#clip0_332_420)">
    <path d="M0.75293 11.2881C0.75293 14.2819 1.94221 17.153 4.05913 19.2699C6.17605 21.3869 9.04722 22.5761 12.041 22.5761C15.0348 22.5761 17.906 21.3869 20.0229 19.2699C22.1398 17.153 23.3291 14.2819 23.3291 11.2881C23.3291 8.29429 22.1398 5.42312 20.0229 3.3062C17.906 1.18928 15.0348 0 12.041 0C9.04722 0 6.17605 1.18928 4.05913 3.3062C1.94221 5.42312 0.75293 8.29429 0.75293 11.2881Z" fill="#2663FF"/>
    <path d="M12.9814 7.05518L16.3227 15.5212H18.1551L14.8133 7.05518H12.9814Z" fill="white"/>
    <path d="M14.8631 15.5212H12.9209L12.2115 13.7436H8.57845L7.86822 15.5212H5.92676L9.39899 7.05518H11.3909L14.8631 15.5212ZM10.3954 9.19567L9.20665 12.1713H11.5832L10.3954 9.19567Z" fill="white"/>
  </g>
  <defs>
    <clipPath id="clip0_332_420">
      <rect width="22.5761" height="22.5761" fill="white" transform="translate(0.75293)"/>
    </clipPath>
  </defs>
</svg> 