<svg xmlns="http://www.w3.org/2000/svg" width="23" height="23" viewBox="0 0 23 23" fill="none">
  <g clip-path="url(#clip0_332_404)">
    <path d="M0 11.2881C0 14.2819 1.18928 17.153 3.3062 19.2699C5.42312 21.3869 8.29429 22.5761 11.2881 22.5761C14.2819 22.5761 17.153 21.3869 19.2699 19.2699C21.3869 17.153 22.5761 14.2819 22.5761 11.2881C22.5761 8.29429 21.3869 5.42312 19.2699 3.3062C17.153 1.18928 14.2819 0 11.2881 0C8.29429 0 5.42312 1.18928 3.3062 3.3062C1.18928 5.42312 0 8.29429 0 11.2881Z" fill="#2663FF"/>
    <path d="M17.3216 10.1478H11.4123V12.5747H14.7875C14.6407 13.3592 14.2005 14.0252 13.5345 14.4655C12.9701 14.8436 12.2533 15.0637 11.4123 15.0637C9.78121 15.0637 8.39843 13.9575 7.90175 12.4788C7.77758 12.1006 7.70421 11.6999 7.70421 11.2879C7.70421 10.8759 7.77758 10.4695 7.90175 10.097C8.39843 8.61826 9.78121 7.51203 11.4123 7.51203C12.3323 7.51203 13.1563 7.82809 13.8111 8.44894L15.6115 6.64849C14.5222 5.63256 13.1056 5.01172 11.418 5.01172C8.96847 5.01172 6.84632 6.41708 5.81346 8.46587C5.39015 9.31247 5.14746 10.272 5.14746 11.2822C5.14746 12.2925 5.39015 13.252 5.81346 14.0986C6.84632 16.1474 8.96283 17.5528 11.418 17.5528C13.1112 17.5528 14.5278 16.9884 15.5663 16.0345C16.7516 14.9452 17.4345 13.3367 17.4345 11.4233C17.4345 10.9831 17.395 10.5598 17.3216 10.1478Z" fill="white"/>
  </g>
  <defs>
    <clipPath id="clip0_332_404">
      <rect width="22.5761" height="22.5761" fill="white"/>
    </clipPath>
  </defs>
</svg> 